<?xml version='1.0' encoding='utf-8'?>
<!DOCTYPE svg PUBLIC '-//W3C//DTD SVG 1.1//EN' 'http://www.w3.org/Graphics/SVG/1.1/DTD/svg11.dtd'>
<svg version="1.1" xmlns="http://www.w3.org/2000/svg" viewBox="0 0 512 512" xmlns:xlink="http://www.w3.org/1999/xlink" enable-background="new 0 0 512 512">
  <g>
    <g>
      <path d="m77.1,55.2l-31.3-30.7c-8-7.9-21-7.8-28.9,0.3-7.9,8.1-7.8,21 0.3,28.9l30.6,30c10-9.3 19.7-18.9 29.3-28.5z"/>
      <path d="m477.6,357.9c-26.7-26.6-66.9-31.6-98.6-15l-59-57.6 11.8-12c28.8-29.4 28.3-76.6-1.1-105.3-14.1-13.7-32.7-21.3-52.4-21.3-20.3,0-39.3,8-53.5,22.4l-15.6,15.9-32.1-31.3 15.7-16c28.8-29.4 28.3-76.6-1.1-105.3-14.1-13.8-32.7-21.4-52.4-21.4-20.3,0-39.3,8-53.5,22.4l-52.2,53.2c-28.8,29.4-28.3,76.6 1.1,105.3 14.1,13.7 32.7,21.3 52.4,21.3 20.3,0 39.3-8 53.5-22.4l7.9-8 32.1,31.3-8,8.1c-28.8,29.4-28.3,76.6 1.1,105.3 14.1,13.7 32.7,21.3 52.4,21.3 20.3,0 39.3-8 53.5-22.4l11.7-12 57.1,55.7c-22.2,32.6-18.9,77.4 10.2,106.3 32.9,32.7 86.2,32.7 119.1,0 32.8-32.7 32.8-85.8-0.1-118.5zm-414.2-195.1c-13.3-13-13.5-34.3-0.5-47.6l52.2-53.2c6.4-6.5 15-10.1 24.2-10.1 8.9,0 17.3,3.4 23.7,9.6 13.3,13 13.5,34.3 0.5,47.6l-52.3,53.2c-12.6,12.8-34.9,13.1-47.8,0.5zm139,135.6c-13.3-13-13.5-34.3-0.5-47.6l52.3-53.2c6.4-6.5 15-10.1 24.2-10.1 8.9,0 17.3,3.4 23.7,9.6 13.3,13 13.5,34.3 0.5,47.6l-52.3,53.2c-12.7,12.8-35,13.1-47.9,0.5zm246.2,149.2c-16.9,16.8-44.2,16.8-61.1,0-16.9-16.8-16.9-44.1 0-60.9 16.9-16.8 44.2-16.8 61.1,0 16.9,16.8 16.9,44.1 0,60.9z"/>
    </g>
  </g>
</svg>
