<?xml version="1.0" encoding="utf-8"?>
<!-- Generator: Adobe Illustrator 25.0.0, SVG Export Plug-In . SVG Version: 6.00 Build 0)  -->
<svg version="1.1" id="Layer_1" xmlns="http://www.w3.org/2000/svg" xmlns:xlink="http://www.w3.org/1999/xlink" x="0px" y="0px"
	 viewBox="0 0 222.45 71.23" style="enable-background:new 0 0 222.45 71.23;" xml:space="preserve">
<style type="text/css">
	.st0{fill:#2C2D32;}
	.st1{fill:#F68A2D;}
	.st2{fill:none;}
</style>
<path class="st0" d="M36.56,10.53h-9.35c-1.52,0-2.75,1.23-2.75,2.75v44.19c0,1.36,1.08,2.52,2.44,2.54
	c0.69,0.01,1.33-0.27,1.78-0.72c0.45-0.45,0.73-1.07,0.73-1.75V39.06c0-0.73,0.59-1.32,1.32-1.32h2.31c0.73,0,1.32,0.59,1.32,1.32
	v18.41c0,1.36,1.08,2.52,2.44,2.54c0.7,0.01,1.32-0.27,1.78-0.72c0.45-0.45,0.72-1.07,0.72-1.75V13.28
	C39.31,11.76,38.08,10.53,36.56,10.53 M29.42,31.48V16.8c0-0.73,0.59-1.32,1.32-1.32h2.31c0.73,0,1.32,0.59,1.32,1.32v14.68
	c0,0.73-0.59,1.32-1.32,1.32h-2.31C30.01,32.79,29.42,32.2,29.42,31.48"/>
<path class="st1" d="M53.88,10.53h-9.35c-1.51,0-2.75,1.24-2.75,2.75v9.34c0,1.51,1.24,2.75,2.75,2.75h9.35
	c1.51,0,2.75-1.24,2.75-2.75v-9.34C56.63,11.77,55.39,10.53,53.88,10.53 M50.36,20.43h-2.31c-0.73,0-1.32-0.59-1.32-1.32V16.8
	c0-0.73,0.59-1.32,1.32-1.32h2.31c0.73,0,1.32,0.59,1.32,1.32v2.31C51.68,19.84,51.09,20.43,50.36,20.43"/>
<path class="st1" d="M19.25,10.53H9.9c-1.51,0-2.75,1.24-2.75,2.75v9.34c0,1.51,1.24,2.75,2.75,2.75h9.35
	c1.51,0,2.75-1.24,2.75-2.75v-9.34C22,11.77,20.76,10.53,19.25,10.53 M15.73,20.43h-2.31c-0.73,0-1.32-0.59-1.32-1.32V16.8
	c0-0.73,0.59-1.32,1.32-1.32h2.31c0.73,0,1.32,0.59,1.32,1.32v2.31C17.05,19.84,16.46,20.43,15.73,20.43"/>
<path class="st1" d="M19.25,45.16H9.9c-1.51,0-2.75,1.24-2.75,2.75v9.35c0,1.51,1.24,2.75,2.75,2.75h9.35
	c1.51,0,2.75-1.24,2.75-2.75v-9.35C22,46.4,20.76,45.16,19.25,45.16 M15.73,55.06h-2.31c-0.73,0-1.32-0.59-1.32-1.32v-2.31
	c0-0.73,0.59-1.32,1.32-1.32h2.31c0.73,0,1.32,0.59,1.32,1.32v2.31C17.05,54.47,16.46,55.06,15.73,55.06"/>
<path class="st0" d="M22,30.32L22,30.32c0-1.37-1.11-2.47-2.47-2.47H9.9c-1.52,0-2.75,1.23-2.75,2.75v9.35
	c0,1.52,1.23,2.75,2.75,2.75h9.62c1.37,0,2.47-1.11,2.47-2.47c0-1.37-1.11-2.47-2.47-2.47h-6.8c-0.34,0-0.62-0.28-0.62-0.62
	c0-0.34,0.28-0.62,0.62-0.62h5.57c0.68,0,1.24-0.55,1.24-1.24c0-0.68-0.55-1.24-1.24-1.24h-5.57c-0.34,0-0.62-0.28-0.62-0.62
	c0-0.34,0.28-0.62,0.62-0.62h6.8C20.89,32.8,22,31.69,22,30.32"/>
<path class="st0" d="M51.68,27.85h-4.95h-2.47c-1.37,0-2.47,1.11-2.47,2.47c0,1.37,1.11,2.47,2.47,2.47h1.85
	c0.34,0,0.62,0.28,0.62,0.62v0.7v2.31v1.32v2.47c0,1.37,1.11,2.47,2.47,2.47c1.37,0,2.47-1.11,2.47-2.47v-2.47v-1.32v-2.31v-0.7
	c0-0.34,0.28-0.62,0.62-0.62h1.86c1.37,0,2.47-1.11,2.47-2.47c0-1.37-1.11-2.47-2.47-2.47H51.68z"/>
<path class="st0" d="M48.05,50.11h6.1c1.37,0,2.47-1.11,2.47-2.47c0-1.37-1.11-2.47-2.47-2.47h-9.9c-1.37,0-2.47,1.11-2.47,2.47
	v2.47v1.24c0,1.37,1.11,2.47,2.47,2.47h2.48h3.66c0.78,0,0.85,1.17,0.07,1.23c-0.04,0-0.07,0-0.1,0h-6.14
	c-1.35,0-2.44,1.09-2.44,2.44v0.07c0,1.35,1.09,2.44,2.44,2.44h9.66c1.52,0,2.75-1.23,2.75-2.75v-2.2v-1.24
	c0-1.37-1.11-2.47-2.47-2.47h-2.48h-3.66c-0.78,0-0.85-1.17-0.07-1.23C47.98,50.11,48.02,50.11,48.05,50.11"/>
<path class="st1" d="M83.61,55.58c-1.51,0-2.55-0.61-3.25-2l-1.95-3.82c-4.61-1.05-7.68-4.92-7.68-10.25V29.49
	c0-6.32,4.28-10.73,10.36-10.73c6.1,0,10.36,4.41,10.36,10.73v10.03c0,5.11-2.7,8.84-7,10.12L86,52.29
	c1.32,2.26,0.24,3.29-1.69,3.29H83.61z M85.37,39.67v-10.4c0-3.47-2-4.72-4.28-4.72c-2.13,0-4.3,1.12-4.3,4.7v10.4
	c0,3.44,2.06,4.7,4.3,4.7C83.15,44.35,85.37,43.23,85.37,39.67"/>
<path class="st1" d="M99.39,49.72c-1.78,0-2.74-0.96-2.74-2.74V21.51c0-1.78,0.97-2.74,2.74-2.74h7.04c6.19,0,10.33,4,10.33,11.21
	v0.86c0,4.54-1.88,7.62-4.88,9.18l3.68,6.46c0.94,1.86,0.24,3.25-1.69,3.25h-1.1c-1.54,0-2.57-0.66-3.18-2.08l-3.15-5.9h-3.74v5.24
	c0,1.78-0.96,2.74-2.74,2.74H99.39z M102.7,35.99h3.01c2.61,0,5.07-1.14,5.07-5.22v-0.88c0-4.28-2.37-5.31-5.07-5.31h-3.01V35.99z"
	/>
<path class="st0" d="M129.98,49.72c-1.78,0-2.74-0.96-2.74-2.74V21.51c0-1.78,0.97-2.74,2.74-2.74h11.83c1.78,0,2.74,0.97,2.74,2.74
	v0.35c0,1.78-0.97,2.74-2.74,2.74h-8.54v7.02h5.62c1.78,0,2.74,0.92,2.74,2.63c0,1.71-0.96,2.66-2.74,2.66h-5.62v7h8.54
	c1.78,0,2.74,0.96,2.74,2.74v0.33c0,1.78-0.97,2.74-2.74,2.74H129.98z"/>
<path class="st0" d="M149.64,49.72c-1.95,0-2.86-1.16-2.33-3.07l7.53-25.56c0.45-1.58,1.47-2.33,3.07-2.33h1.75
	c1.6,0,2.63,0.73,3.07,2.33l7.39,25.56c0.53,1.93-0.37,3.07-2.28,3.07h-0.59c-1.62,0-2.62-0.76-3.03-2.37l-1.05-3.73h-8.93
	l-1.05,3.75c-0.41,1.6-1.43,2.35-3.05,2.35H149.64z M155.52,38.4h6.41l-3.14-12.75L155.52,38.4z"/>
<path class="st0" d="M179.48,49.72c-1.78,0-2.74-0.96-2.74-2.74V24.6h-3.64c-1.78,0-2.74-0.96-2.74-2.74v-0.35
	c0-1.78,0.97-2.74,2.74-2.74h13.39c1.78,0,2.74,0.97,2.74,2.74v0.35c0,1.78-0.81,2.74-2.3,2.74h-4.1v22.38
	c0,1.78-0.96,2.74-2.74,2.74H179.48z"/>
<path class="st0" d="M201.47,49.72c-5.29,0-9.26-3.16-10.16-7.81c-0.46-1.95,0.57-3.12,2.5-3.12h0.18c1.74,0,2.39,0.79,2.86,1.89
	c0.68,2.06,2.24,3.35,4.8,3.35c2.41,0,4.19-1.27,4.19-3.55c0-2.57-2.6-3.23-5.57-4c-4.01-1.06-8.73-2.33-8.73-8.64
	c0-5.62,3.86-9.08,10-9.08c5,0,8.71,2.77,9.77,7.48c0.5,1.87-0.48,3.12-2.48,3.12h-0.17c-1.51,0-2.16-0.75-2.67-1.79
	c-0.7-1.85-2.19-3.15-4.53-3.15c-2.37,0-3.93,1.29-3.93,3.42c0,2.64,2.62,3.28,5.62,4c4.02,0.98,8.75,2.15,8.75,8.49
	C211.89,46.13,207.79,49.72,201.47,49.72"/>
<rect x="-165.1" y="-155.33" class="st2" width="549.24" height="381.2"/>
</svg>
